<svg height="745" viewBox="0 0 464 745" width="464" xmlns="http://www.w3.org/2000/svg" xmlns:xlink="http://www.w3.org/1999/xlink"><defs><linearGradient id="a" x1="85.333333%" x2="14.481985%" y1="85.332966%" y2="13.508965%"><stop offset="0" stop-color="#b4c0c9"/><stop offset=".972376" stop-color="#94a5b2"/></linearGradient><path id="b" d="m232.25 115.966-231.75-115.96v235.91z"/><linearGradient id="c" x1="9.333323%" x2="139.354775%" y1="10.666645%" y2="37.537996%"><stop offset="0" stop-color="#647989"/><stop offset="1" stop-color="#2f383e"/></linearGradient><linearGradient id="d" x1="25.68884%" x2="84.122485%" y1="17.537366%" y2="88.885066%"><stop offset="0" stop-color="#2edaff"/><stop offset="1" stop-color="#3b8dff"/></linearGradient><mask id="e" fill="#fff"><use fill="#fff" fill-rule="evenodd" xlink:href="#b"/></mask></defs><g fill="none" fill-rule="evenodd"><g transform="translate(231 231)"><use fill="url(#a)" xlink:href="#b"/><g fill="#0d3958" fill-opacity=".2"><path d="m30 220.646-29.5-175.48v190.75z" mask="url(#e)"/><path d="m202.5 101.085-202-101.079v25.66z" mask="url(#e)"/></g></g><path d="m14 742.37c.5-.26 212.755-103.17 213-103.3 2.934-1.65 4.535-2.18 4.6-7.4.006-.5-.1-400.655-.1-400.655-89.905 45.011-216.5 108.151-227.5 114.001-3.5 1.861-4 3.65-4 6.15v381.004c0 8.5.5 17 14 10.2z" fill="url(#c)"/><path d="m463.25 119.997v226.969s-432.25-216.176-447.25-224.05c-10-5.25-10-10.25 0-15.75 9.233-5.078 184.558-92.559 211.5-106 3.5-1.5 4.5-1.5 7.575-.3l223.775 112.05c3.15 1.75 4.15 3.25 4.4 7.081z" fill="url(#d)"/></g></svg>